<svg width="16" height="25" viewBox="0 0 16 25" fill="none" xmlns="http://www.w3.org/2000/svg">
<path d="M7.56733 0C5.53109 0 3.63258 0.676852 2.24141 1.96383C0.850243 3.25077 0 5.14211 0 7.37196C0 9.22599 0.994976 11.3661 1.55254 12.5848L6.67283 23.7713C6.75227 23.9415 6.87864 24.0856 7.03709 24.1865C7.19554 24.2874 7.37949 24.341 7.56733 24.341C7.75518 24.341 7.93913 24.2874 8.09758 24.1865C8.25603 24.0856 8.38239 23.9415 8.46184 23.7713L13.5821 12.5848C14.1397 11.3661 15.1347 9.22599 15.1347 7.37196C15.1347 5.14211 14.2844 3.25077 12.8933 1.96383C11.5021 0.676852 9.60357 0 7.56733 0ZM7.56733 1.97409C9.16529 1.97409 10.5559 2.49729 11.5464 3.41353C12.5368 4.32977 13.1606 5.63021 13.1606 7.37196C13.1606 8.38079 12.3113 10.6072 11.7828 11.7622L7.56733 20.9952L3.35184 11.7622C2.82335 10.6072 1.97409 8.38082 1.97409 7.37196C1.97409 5.63021 2.59789 4.32977 3.58831 3.41353C4.57874 2.49729 5.96938 1.97409 7.56733 1.97409ZM7.56733 3.29015C5.21678 3.29015 3.29015 5.21682 3.29015 7.56731C3.29015 9.91783 5.21679 11.8445 7.56733 11.8445C9.91788 11.8445 11.8445 9.91783 11.8445 7.56731C11.8445 5.21682 9.91789 3.29015 7.56733 3.29015ZM7.56733 5.26423C8.85098 5.26423 9.87044 6.28373 9.87044 7.56731C9.87044 8.85096 8.85099 9.87042 7.56733 9.87042C6.28368 9.87042 5.26423 8.85096 5.26423 7.56731C5.26423 6.28373 6.2837 5.26423 7.56733 5.26423Z" fill="white"/>
</svg>
