<svg width="20" height="19" viewBox="0 0 20 19" fill="none" xmlns="http://www.w3.org/2000/svg">
<path d="M17.1858 10.8792V5.43348C17.1819 5.32952 17.1564 5.22752 17.1109 5.13397C17.1122 4.86894 17.0405 4.60868 16.9036 4.38174C16.7667 4.15479 16.5699 3.96993 16.3349 3.84742L9.58905 0.239633C9.29725 0.0823432 8.97095 0 8.63945 0C8.30796 0 7.98166 0.0823432 7.68986 0.239633L4.56538 1.89377C4.44912 1.9252 4.34187 1.98349 4.25225 2.06395L0.943983 3.8338C0.709945 3.9575 0.514037 4.14264 0.377313 4.36931C0.240588 4.59599 0.168214 4.85563 0.167969 5.12035V12.2815C0.16886 12.6369 0.267022 12.9852 0.451815 13.2888C0.636608 13.5924 0.900979 13.8396 1.21627 14.0037L7.7307 17.4549C8.02346 17.6055 8.34767 17.6848 8.67689 17.6863C9.00921 17.6856 9.33634 17.6039 9.62989 17.4481L10.9369 16.7674C11.2677 17.3487 11.7262 17.8473 12.2778 18.2256C12.8295 18.6039 13.4598 18.852 14.1212 18.9511C14.7827 19.0503 15.4581 18.998 16.0964 18.7982C16.7347 18.5984 17.3193 18.2562 17.8061 17.7975C18.2929 17.3388 18.6692 16.7755 18.9066 16.1502C19.144 15.5249 19.2363 14.8538 19.1766 14.1877C19.1169 13.5215 18.9066 12.8775 18.5618 12.3044C18.2169 11.7313 17.7465 11.244 17.1858 10.8792ZM8.33654 1.42408C8.43243 1.37508 8.53858 1.34953 8.64626 1.34953C8.75394 1.34953 8.86009 1.37508 8.95599 1.42408L15.7019 5.03186C15.7176 5.0398 15.7308 5.05196 15.7401 5.06699C15.7493 5.08201 15.7542 5.09931 15.7542 5.11695C15.7542 5.13459 15.7493 5.15189 15.7401 5.16691C15.7308 5.18193 15.7176 5.19409 15.7019 5.20204L13.1424 6.56347C13.0827 6.47609 13.0034 6.40384 12.9109 6.35244L6.17186 2.58129L8.33654 1.42408ZM4.73556 3.3505L11.7878 7.29183L8.64286 8.97319L1.58385 5.20204C1.5681 5.19409 1.55487 5.18193 1.54562 5.16691C1.53637 5.15189 1.53147 5.13459 1.53147 5.11695C1.53147 5.09931 1.53637 5.08201 1.54562 5.06699C1.55487 5.05196 1.5681 5.0398 1.58385 5.03186L4.73556 3.3505ZM1.85614 12.8056C1.75872 12.7568 1.67667 12.682 1.61903 12.5895C1.56138 12.497 1.53036 12.3904 1.5294 12.2815V6.71322L7.99618 10.1985V16.0526L1.85614 12.8056ZM10.3787 14.6231C10.3808 14.9067 10.4104 15.1894 10.4672 15.4672L9.35761 16.0526V10.1304L15.8244 6.67919V10.3278C15.4905 10.2438 15.1476 10.2004 14.8033 10.1985C13.6304 10.2003 12.506 10.667 11.6766 11.4964C10.8472 12.3258 10.3805 13.4502 10.3787 14.6231ZM14.8033 17.6863C13.9909 17.6863 13.2118 17.3636 12.6373 16.7891C12.0628 16.2147 11.7401 15.4355 11.7401 14.6231C11.7401 13.8107 12.0628 13.0316 12.6373 12.4571C13.2118 11.8826 13.9909 11.5599 14.8033 11.5599C15.3423 11.5553 15.8721 11.699 16.3349 11.9751C16.9165 12.3134 17.3706 12.8336 17.627 13.4556C17.8834 14.0776 17.9279 14.7668 17.7536 15.4166C17.5794 16.0664 17.196 16.6408 16.6628 17.051C16.1296 17.4612 15.4761 17.6845 14.8033 17.6863Z" fill="white"/>
<path d="M14.8708 13.1253C14.9069 13.021 14.9171 12.9095 14.9005 12.8004C14.8839 12.6913 14.841 12.5879 14.7755 12.4991C14.7203 12.4281 14.6517 12.3688 14.5734 12.3246C14.4952 12.2803 14.409 12.252 14.3197 12.2412C14.2305 12.2305 14.14 12.2375 14.0535 12.2619C13.967 12.2863 13.8862 12.3275 13.8157 12.3833L12.6789 13.2751C12.5982 13.3388 12.5329 13.42 12.4881 13.5125C12.4432 13.6051 12.4199 13.7066 12.4199 13.8094C12.4199 13.9123 12.4432 14.0138 12.4881 14.1063C12.5329 14.1989 12.5982 14.2801 12.6789 14.3438L13.8157 15.2355C13.9364 15.3292 14.085 15.3795 14.2378 15.3785C14.3441 15.3763 14.4483 15.3492 14.5423 15.2995C14.6362 15.2497 14.7172 15.1787 14.7788 15.092C14.8403 15.0053 14.8807 14.9054 14.8967 14.8003C14.9127 14.6952 14.9038 14.5878 14.8708 14.4867H15.8238V15.644C15.8238 15.8245 15.8956 15.9976 16.0232 16.1253C16.1509 16.253 16.324 16.3247 16.5045 16.3247C16.6851 16.3247 16.8582 16.253 16.9859 16.1253C17.1135 15.9976 17.1853 15.8245 17.1853 15.644V13.806C17.1853 13.6255 17.1135 13.4524 16.9859 13.3247C16.8582 13.197 16.6851 13.1253 16.5045 13.1253H14.8708Z" fill="white"/>
</svg>
