<svg width="18" height="19" viewBox="0 0 18 19" fill="none" xmlns="http://www.w3.org/2000/svg">
<path d="M17.0676 2.42561C14.5649 0.841165 11.6637 0 8.70164 0C5.73958 0 2.83841 0.841165 0.335739 2.42561C0.232803 2.49114 0.148067 2.58158 0.0893791 2.68856C0.0306912 2.79555 -5.09056e-05 2.91561 6.32746e-08 3.03763V9.35502C0.002324 11.0696 0.497029 12.7474 1.42528 14.189C2.35354 15.6305 3.67628 16.7751 5.23621 17.4867L8.40144 18.9254C8.49571 18.9683 8.59808 18.9904 8.70164 18.9904C8.80521 18.9904 8.90758 18.9683 9.00185 18.9254L12.1671 17.4867C13.727 16.7751 15.0498 15.6305 15.978 14.189C16.9063 12.7474 17.401 11.0696 17.4033 9.35502V3.03763C17.4033 2.91561 17.3726 2.79555 17.3139 2.68856C17.2552 2.58158 17.1705 2.49114 17.0676 2.42561ZM15.953 9.35502C15.9511 10.7912 15.5367 12.1966 14.7591 13.4041C13.9815 14.6116 12.8734 15.5703 11.5667 16.1662L8.70164 17.4679L5.83663 16.1626C4.53046 15.5669 3.42277 14.6088 2.64521 13.402C1.86765 12.1952 1.45291 10.7906 1.45027 9.35502V3.44226C3.6442 2.13798 6.1493 1.44957 8.70164 1.44957C11.254 1.44957 13.7591 2.13798 15.953 3.44226V9.35502Z" fill="white"/>
<path d="M6.31288 7.60109C6.17612 7.469 5.99295 7.39591 5.80282 7.39757C5.61269 7.39922 5.43082 7.47548 5.29637 7.60993C5.16193 7.74437 5.08566 7.92625 5.08401 8.11638C5.08236 8.3065 5.15545 8.48968 5.28754 8.62644L7.46295 10.8018C7.59893 10.9378 7.78334 11.0142 7.97562 11.0142C8.1679 11.0142 8.35231 10.9378 8.48829 10.8018L12.114 7.17616C12.2461 7.0394 12.3192 6.85623 12.3175 6.6661C12.3159 6.47597 12.2396 6.2941 12.1051 6.15965C11.9707 6.02521 11.7888 5.94895 11.5987 5.94729C11.4086 5.94564 11.2254 6.01873 11.0886 6.15082L7.97562 9.26383L6.31288 7.60109Z" fill="white"/>
</svg>
